<?xml version="1.0" standalone="no"?>
<svg
  width="600"
  height="600"
  viewBox="0 0 600 600"
  xmlns="http://www.w3.org/2000/svg"
>
  <g transform="translate(300,300)">
    <path d="M136.4,-164.4C178.1,-127.6,214.1,-85.8,223.6,-38.5C233.2,8.9,216.2,62,182.2,90.5C148.2,119,97.2,122.9,49.1,144.6C1,166.3,-44.1,205.8,-93.4,208.6C-142.6,211.5,-196,177.8,-214.6,131C-233.2,84.2,-217.1,24.4,-204.9,-34.6C-192.6,-93.6,-184.4,-151.7,-150.9,-190C-117.4,-228.3,-58.7,-246.6,-5.7,-239.9C47.4,-233.1,94.7,-201.2,136.4,-164.4Z" fill="#abb8c3" />
  </g>
</svg>
  